HIERARCHY
ROOT Hips
{
  OFFSET 42.1613 89.284 -200.418
  CHANNELS 6 Xposition Yposition Zposition Zrotation Xrotation Yrotation
  JOINT ToSpine
  {
    OFFSET -0.0105055 1.38907 -7.13956
    CHANNELS 3 Zrotation Xrotation Yrotation
    JOINT Spine
    {
      OFFSET 0.0105055 10 1
      CHANNELS 3 Zrotation Xrotation Yrotation
      JOINT Spine1
      {
        OFFSET 0 12 1.60637
        CHANNELS 3 Zrotation Xrotation Yrotation
        JOINT Neck
        {
          OFFSET 0 27 2.26658
          CHANNELS 3 Zrotation Xrotation Yrotation
          JOINT Head
          {
            OFFSET 0 9 2.12705
            CHANNELS 3 Zrotation Xrotation Yrotation
            End Site
            {
              OFFSET 0 11 2
            }
          }
        }
        JOINT LeftShoulder
        {
          OFFSET 8 19.6109 2.86452
          CHANNELS 3 Zrotation Xrotation Yrotation
          JOINT LeftArm
          {
            OFFSET 12 1 0.681055
            CHANNELS 3 Zrotation Xrotation Yrotation
            JOINT LeftForeArm
            {
              OFFSET 19 0 -1.52608
              CHANNELS 3 Zrotation Xrotation Yrotation
              JOINT LeftHand
              {
                OFFSET 23 0 0
                CHANNELS 3 Zrotation Xrotation Yrotation
                End Site
                {
                  OFFSET 10 0 0
                }
              }
            }
          }
        }
        JOINT RightShoulder
        {
          OFFSET -8 19.6109 2.86452
          CHANNELS 3 Zrotation Xrotation Yrotation
          JOINT RightArm
          {
            OFFSET -12 1 0.681055
            CHANNELS 3 Zrotation Xrotation Yrotation
            JOINT RightForeArm
            {
              OFFSET -19 0 -1.52608
              CHANNELS 3 Zrotation Xrotation Yrotation
              JOINT RightHand
              {
                OFFSET -23 0 0
                CHANNELS 3 Zrotation Xrotation Yrotation
                End Site
                {
                  OFFSET -10 0 0
                }
              }
            }
          }
        }
      }
    }
  }
  JOINT LeftUpLeg
  {
    OFFSET 9 -7.17245 0
    CHANNELS 3 Zrotation Xrotation Yrotation
    JOINT LeftLeg
    {
      OFFSET 0 -44.1113 0
      CHANNELS 3 Zrotation Xrotation Yrotation
      JOINT LeftFoot
      {
        OFFSET 0 -36.1829 0
        CHANNELS 3 Zrotation Xrotation Yrotation
        JOINT LeftToeBase
        {
          OFFSET 0 -4.84184 13
          CHANNELS 3 Zrotation Xrotation Yrotation
          End Site
          {
            OFFSET 0 1 6
          }
        }
      }
    }
  }
  JOINT RightUpLeg
  {
    OFFSET -9 -7.17245 0
    CHANNELS 3 Zrotation Xrotation Yrotation
    JOINT RightLeg
    {
      OFFSET 0 -44.0551 0
      CHANNELS 3 Zrotation Xrotation Yrotation
      JOINT RightFoot
      {
        OFFSET 0 -36.1469 0
        CHANNELS 3 Zrotation Xrotation Yrotation
        JOINT RightToeBase
        {
          OFFSET 0 -4.92256 13
          CHANNELS 3 Zrotation Xrotation Yrotation
          End Site
          {
            OFFSET 0 1 6
          }
        }
      }
    }
  }
}
MOTION
Frames:	12
Frame Time:	0.0333333
42.2327 89.5936 -202.86 -5.55861 -0.673993 0.533935 0 0 0 1.76689 6.39798 -7.78792 9.33519 0.00370432 -9.93721 3.5286 -9.71323 13.8646 -3.17028 7.61766 14.7231 -31.599 4.16543 -7.53287 -32.8979 24.5316 -22.5459 63.5651 -2.88615 -91.434 -11.5579 0.221391 -2.13449 23.5259 3.71893 8.93955 43.834 -14.7496 -30.8019 -25.4884 8.18121 73.3795 5.42867 0.639196 16.2631 12.4939 2.39133 12.7461 1.1981 88.9395 -0.852688 23.7276 -6.55796 1.39656 1.81166 -25.3756 -2.89582 10.5732 -33.945 -0.856096 -0.0174019 53.3787 6.77772 -27.0409 -8.00882 -1.92445 3.92976 -14.8711 -8.37167 
42.1342 89.1461 -196.421 -7.68129 -1.49906 1.14654 0 0 0 4.79839 7.80294 -6.56284 8.78153 0.40525 -8.6253 2.48808 -10.9105 12.847 -2.95211 6.70804 13.4233 -33.3685 4.15835 -7.02463 -38.7594 21.6254 -11.0067 65.5037 -3.18075 -91.4483 -11.5162 0.353728 -3.61513 24.8805 4.08814 9.58853 45.3301 -13.9185 -18.4441 -17.1179 5.70072 72.1242 4.6127 0.180215 4.31663 15.7283 -8.61685 10.5136 -179.832 83.0253 -179.891 27.5499 -10.2542 2.52893 1.79176 -24.5662 -4.18172 12.1676 -29.0215 -2.90793 0.00333853 55.7048 5.83896 -30.971 -13.674 -3.84665 4.05975 -15.4941 -7.91847 
42.2676 89.0448 -187.425 -7.41965 -1.50451 1.76738 0 0 0 5.14036 8.26066 -4.37945 8.50171 1.12807 -6.32952 2.41011 -10.2652 10.6623 -3.98191 5.2237 11.6385 -33.4374 3.86764 -6.26949 -44.9209 17.5735 5.65905 65.4896 -6.83753 -93.1071 -9.58506 0.3537 -4.16577 25.2083 4.51475 10.8056 44.4595 -11.5745 -4.05187 -12.4922 3.9264 72.8252 2.31751 0.117565 5.80479 14.5997 -24.4162 6.8972 179.666 80.3641 -179.034 28.9422 -13.5341 3.49814 1.7261 -22.5102 -4.28866 11.2564 -22.2955 -5.24463 0.0164181 57.0578 4.84818 -34.5807 -21.5136 -6.74322 4.08278 -15.5701 -7.52493 
42.6347 89.6411 -178.002 -5.17632 -1.62492 0.572597 0 0 0 6.37894 8.08788 -0.902435 3.4985 1.19921 -1.59652 6.08918 -7.34995 7.19905 -6.94303 3.47637 10.0635 -31.2835 3.43696 -5.68396 -45.8025 17.3238 20.1343 63.0429 -12.4623 -96.2632 -8.58161 0.270718 -3.6167 24.1009 4.55347 11.4168 41.8027 -10.4014 3.0838 -12.6689 2.77192 77.8586 2.49041 0.137821 6.34033 10.9481 -35.0286 4.49641 -173.72 88.779 177.447 27.5789 -14.343 3.53376 1.66566 -21.4636 -3.74368 8.21051 -13.8564 -6.75275 0.0254251 55.1535 5.26234 -37.2557 -25.3113 -8.63395 4.55131 -17.7469 -7.17629 
43.1746 91.1169 -167.505 -3.16364 -3.10426 -2.03151 0 0 0 10.2342 8.85721 3.20235 -4.16626 1.17426 4.48794 8.34395 -4.98826 4.32322 -6.43796 2.66711 7.82582 -29.2605 2.97275 -4.88173 -41.3718 19.8453 29.9512 60.4112 -16.7585 -99.2982 -8.00324 0.267598 -3.82486 19.746 4.16789 12.3178 40.284 -10.0821 3.44984 -11.5316 0.992169 85.1489 2.00841 0.122224 6.95398 8.42677 -38.0776 3.0135 -0.784526 74.5149 7.67353 25.2411 -11.5969 2.60208 1.6379 -20.5739 -3.97415 4.62954 -2.46801 -8.24715 0.0147957 49.6093 9.03375 -35.3247 -22.8644 -7.37567 5.67029 -22.4297 -5.48941 
43.6836 92.6123 -155.847 -1.36945 -4.86337 -4.34348 0 0 0 13.8683 8.41144 7.26451 -10.778 2.82037 10.1999 10.14 -3.81084 2.1044 -5.0435 1.85633 5.90933 -25.8191 2.81198 -5.34539 -37.6756 21.2255 36.5116 59.0389 -19.9938 -101.592 -8.01428 0.331545 -4.71164 14.4216 3.60049 13.2489 38.1629 -9.58687 -0.143417 -7.48128 -0.335632 92.5541 2.50974 0.15009 6.86949 6.92404 -35.3223 1.64995 0.452752 52.6636 4.10465 22.4452 -5.88417 1.15948 1.50963 -19.6183 -2.35182 -0.0060057 9.91476 -9.39713 -0.230888 41.5834 16.3072 -27.4147 -16.6114 -4.16667 6.5771 -24.5537 -1.85948 
44.0978 92.9748 -143.46 0.443605 -5.72407 -6.55852 0 0 0 16.0377 5.33195 11.2728 -15.4049 5.88941 15.0785 14.0593 -2.72734 0.212243 -6.15407 0.418056 5.44269 -18.4342 2.38326 -6.00895 -38.4644 20.0784 41.6539 59.1378 -23.0154 -103.151 -7.4912 0.395182 -6.06609 9.81174 2.98998 13.8444 34.7207 -7.99818 -3.46961 -5.44724 -0.822033 98.5559 3.72996 0.207925 6.40592 6.73892 -30.5645 1.13231 0.226093 30.0365 -2.44891 16.6689 0.645593 -0.0397305 1.40357 -18.6223 -2.08089 -4.47566 20.6557 -7.08281 0.106095 33.9532 21.5676 -25.9449 -9.13036 -2.02286 5.59832 -21.3886 -2.717 
44.349 92.2095 -131.676 1.18523 -5.16402 -10.446 0 0 0 18.4618 1.11971 14.9721 -18.5432 9.18145 19.0294 15.433 -2.18584 0.0798209 -5.49395 -0.419794 5.58478 -9.64566 1.26612 -3.68461 -40.8525 17.7359 45.6475 59.3626 -26.8737 -104.988 -7.23437 0.452204 -7.11363 3.4391 1.97301 13.373 34.2579 -5.33319 -3.77154 -1.98724 -0.43666 102.388 4.82961 0.282195 6.62013 9.44981 -28.1922 3.60723 1.26141 15.8672 -12.0438 10.4748 4.56107 -0.438773 1.22005 -14.3311 -1.67093 -7.24929 26.3889 1.30467 0.0867711 32.8004 13.1827 -29.2798 -8.74669 -2.30858 4.77596 -18.5003 -5.79149 
44.4697 91.1007 -120.802 0.139594 -4.22988 -14.3245 0 0 0 21.4468 -2.84159 16.9668 -20.058 12.0616 20.9791 15.6387 -1.4423 1.09315 -4.12695 -1.69853 6.39935 -3.3495 0.539653 -1.38038 -43.1729 13.2228 51.5174 58.0313 -30.6783 -107.663 -7.14354 0.498558 -7.99399 -0.344944 1.34813 13.022 36.2022 -3.91543 -5.29368 5.57105 1.72438 107.145 5.21439 0.342351 7.54241 14.1914 -27.974 5.94478 1.77249 15.0877 -19.3867 11.7123 5.25984 -0.567158 0.703045 -11.0604 0.0899361 -7.70434 28.0333 6.12061 -0.102766 37.2365 -4.87917 -30.6682 -14.3041 -3.94044 4.11825 -15.5901 -5.80529 
44.2743 90.1972 -110.856 -1.35708 -5.95731 -15.8823 0 0 0 20.9199 -2.9453 15.7967 -18.7851 13.0248 19.7455 15.0926 -0.438509 2.70366 -3.25565 -2.63661 7.75158 -3.96889 0.636264 -1.75082 -43.9694 8.31121 56.0721 55.7429 -32.2378 -109.966 -6.89231 0.483304 -8.00414 2.21567 1.84949 13.9856 38.5819 -4.12212 -12.1562 9.52612 4.76456 116.334 4.5404 0.318591 7.99512 16.8791 -25.6437 2.05289 1.38923 21.2046 -16.671 3.96792 7.3661 -0.118715 0.313456 -8.00571 1.15846 -7.03927 28.998 3.3418 -0.513134 46.2559 -20.1237 -32.8513 -16.6334 -4.92681 3.82578 -14.2522 -6.93146 
43.9827 88.6452 -101.738 -1.4566 -7.30733 -14.8698 0 0 0 16.8136 -1.79579 12.4162 -15.1932 11.2649 16.0295 13.6624 -0.872479 5.22627 -1.98246 -4.20707 9.50304 -11.4398 1.03768 -2.25274 -42.685 6.91117 50.2507 55.1085 -30.5082 -109.496 -7.37274 0.423512 -6.54879 7.77845 2.5396 13.0707 44.5774 -2.77242 -19.5868 7.19008 4.60315 122.463 5.37707 0.347743 7.49316 18.3983 -26.7555 2.19221 -0.756004 35.8209 -17.1338 -5.80268 2.98407 0.191343 1.27953 -12.6949 -1.45929 -5.72964 24.6768 -1.94104 0.341286 61.9215 -25.8221 -34.6691 -18.4766 -5.80581 4.10229 -15.8024 -8.89391 
43.167 87.2218 -93.9514 2.9 -8.32664 -12.2598 0 0 0 6.73622 -0.519919 8.18044 -11.2062 10.1023 11.4851 14.3114 -6.54748 8.80474 -0.546544 -1.59672 12.0498 -24.4804 2.20153 -3.43514 -32.8924 8.19942 32.2171 51.542 -24.7804 -108.413 -8.44309 0.290426 -4.00964 14.6107 3.10859 10.9005 52.3137 -1.2136 -23.1889 1.893 0.906865 115.588 5.64701 0.314627 6.21084 16.6983 -27.312 8.89324 0.235979 47.7889 -27.7247 -6.01195 -8.19038 -0.474972 1.71176 -16.4479 -7.00754 -7.84161 14.491 -5.85186 2.63138 81.1316 -21.4616 -36.5128 -23.437 -7.84186 4.13833 -15.8482 -7.61479 
